<svg xmlns="http://www.w3.org/2000/svg" viewBox="0 0 24 24" fill="none" stroke="currentColor" stroke-width="2" stroke-linecap="round" stroke-linejoin="round"><path d="M14.5 10c-.83 0-1.5-.67-1.5-1.5v-5c0-.83.67-1.5 1.5-1.5s1.5.67 1.5 1.5v5c0 .83-.67 1.5-1.5 1.5z"/><path d="M20.5 10H19V8.5c0-.83.67-1.5 1.5-1.5s1.5.67 1.5 1.5-.67 1.5-1.5 1.5z"/><path d="M9.5 14c.83 0 1.5.67 1.5 1.5v5c0 .83-.67 1.5-1.5 1.5S8 21.33 8 20.5v-5c0-.83.67-1.5 1.5-1.5z"/><path d="M3.5 14H5v1.5c0 .83-.67 1.5-1.5 1.5S2 16.33 2 15.5 2.67 14 3.5 14z"/><path d="M14 9.5c0-.83.67-1.5 1.5-1.5h5c.83 0 1.5.67 1.5 1.5s-.67 1.5-1.5 1.5h-5c-.83 0-1.5-.67-1.5-1.5z"/><path d="M14 3.5c0-.83.67-1.5 1.5-1.5S17 2.67 17 3.5V5h-1.5c-.83 0-1.5-.67-1.5-1.5z"/><path d="M10 14.5c0 .83-.67 1.5-1.5 1.5h-5c-.83 0-1.5-.67-1.5-1.5S2.67 13 3.5 13h5c.83 0 1.5.67 1.5 1.5z"/><path d="M10 20.5c0 .83-.67 1.5-1.5 1.5S7 21.33 7 20.5V19h1.5c.83 0 1.5.67 1.5 1.5z"/></svg>